<svg width="31.197" height="40.219" viewBox="0 0 8.254 10.641" xml:space="preserve" xmlns="http://www.w3.org/2000/svg">
<defs>
    <filter id='inset-shadow1'>
      <!-- Shadow offset -->
      <feOffset
              dx='0.6'
              dy='0.6'
            />
      <!-- Shadow blur -->
    <feGaussianBlur
              stdDeviation='0.5'
              result='offset-blur'
            />
      <!-- Invert drop shadow to make an inset shadow-->
      <feComposite
              operator='out'
              in='SourceGraphic'
              in2='offset-blur'
              result='inverse'
            />
      <!-- Cut colour inside shadow -->
      <feFlood
              flood-color='black'
              flood-opacity='1'
              result='color'
            />
      <feComposite
              operator='in'
              in='color'
              in2='inverse'
              result='shadow'
            />
      <!-- Placing shadow over element -->
      <feComposite
              operator='over'
              in='shadow'
              in2='SourceGraphic'
            />
  </filter>
  <filter id='inset-shadow2'>
      <!-- Shadow offset -->
      <feOffset
              dx='-0.25'
              dy='-0.25'
            />
      <!-- Shadow blur -->
    <feGaussianBlur
              stdDeviation='0.3'
              result='offset-blur'
            />
      <!-- Invert drop shadow to make an inset shadow-->
      <feComposite
              operator='out'
              in='SourceGraphic'
              in2='offset-blur'
              result='inverse'
            />
      <!-- Cut colour inside shadow -->
      <feFlood
              flood-color='white'
              flood-opacity='.3'
              result='color'
            />
      <feComposite
              operator='in'
              in='color'
              in2='inverse'
              result='shadow'
            />
      <!-- Placing shadow over element -->
      <feComposite
              operator='over'
              in='shadow'
              in2='SourceGraphic'
            />
  </filter>
  </defs>
<g filter="url(#inset-shadow1) url(#inset-shadow2)" transform="matrix(.01912 0 0 .01912 .023 .023)" style="clip-rule:evenodd;fill-rule:evenodd;image-rendering:optimizeQuality;shape-rendering:geometricPrecision;text-rendering:geometricPrecision"><path fill="#86776f" d="M264 553c-29 5-55-24-64-28-18-10-8-7-35-20-11-6-45-20-50-25-22-15-18-34-35-61-9-15-24-29-38-41-24-22-40-41-42-94 0-11 5-19 4-19-2-22-5-54 10-81 11 30 19 35 38 56 3 0 13 0 21 2 21 9 30 19 41 38 1 2 11 29 24 54 16 29 24 32 36 43-5-27-18-70-27-110-3-16-8-29-15-45-10-24-14-33-14-46-2-47 8-55 30-72-3-45 0-60 18-104 33 34 40 48 53 91 26 9 39 13 53 58 4 12 4 22 2 48-1 17-1 31 2 48 5 40 7 85 12 112 8-14 14-20 19-53 4-28 4-56 4-59 4-22 9-34 26-50 6-4 16-8 19-8 11-27 16-34 17-66 23 20 30 51 36 72-1 1 7 6 11 17 16 51 8 73-8 102-8 16-18 35-21 52-7 32 3 48-12 69-3 7-30 32-39 41-20 21-13 15-26 30-7 8-22 44-50 49z"/></g></svg>