<svg width="755.887" height="70.025" viewBox="0 0 199.995 18.527" xml:space="preserve" xmlns="http://www.w3.org/2000/svg">
<defs>
    <filter id='stamp-inset-shadow1'>
      <!-- Shadow offset -->
      <feOffset
              dx='0.6'
              dy='0.6'
            />
      <!-- Shadow blur -->
    <feGaussianBlur
              stdDeviation='0.5'
              result='offset-blur'
            />
      <!-- Invert drop shadow to make an inset shadow-->
      <feComposite
              operator='out'
              in='SourceGraphic'
              in2='offset-blur'
              result='inverse'
            />
      <!-- Cut colour inside shadow -->
      <feFlood
              flood-color='black'
              flood-opacity='1'
              result='color'
            />
      <feComposite
              operator='in'
              in='color'
              in2='inverse'
              result='shadow'
            />
      <!-- Placing shadow over element -->
      <feComposite
              operator='over'
              in='shadow'
              in2='SourceGraphic'
            />
  </filter>
  <filter id='stamp-inset-shadow2'>
      <!-- Shadow offset -->
      <feOffset
              dx='-0.25'
              dy='-0.25'
            />
      <!-- Shadow blur -->
    <feGaussianBlur
              stdDeviation='0.3'
              result='offset-blur'
            />
      <!-- Invert drop shadow to make an inset shadow-->
      <feComposite
              operator='out'
              in='SourceGraphic'
              in2='offset-blur'
              result='inverse'
            />
      <!-- Cut colour inside shadow -->
      <feFlood
              flood-color='white'
              flood-opacity='.3'
              result='color'
            />
      <feComposite
              operator='in'
              in='color'
              in2='inverse'
              result='shadow'
            />
      <!-- Placing shadow over element -->
      <feComposite
              operator='over'
              in='shadow'
              in2='SourceGraphic'
            />
  </filter>
  <filter id='text-inset-shadow1'>
      <!-- Shadow offset -->
      <feOffset
              dx='0.5'
              dy='0.5'
            />
      <!-- Shadow blur -->
    <feGaussianBlur
              stdDeviation='0.4'
              result='offset-blur'
            />
      <!-- Invert drop shadow to make an inset shadow-->
      <feComposite
              operator='out'
              in='SourceGraphic'
              in2='offset-blur'
              result='inverse'
            />
      <!-- Cut colour inside shadow -->
      <feFlood
              flood-color='black'
              flood-opacity='1'
              result='color'
            />
      <feComposite
              operator='in'
              in='color'
              in2='inverse'
              result='shadow'
            />
      <!-- Placing shadow over element -->
      <feComposite
              operator='over'
              in='shadow'
              in2='SourceGraphic'
            />
  </filter>
  <filter id='text-inset-shadow2'>
      <!-- Shadow offset -->
      <feOffset
              dx='-0.3'
              dy='-0.3'
            />
      <!-- Shadow blur -->
    <feGaussianBlur
              stdDeviation='0.4'
              result='offset-blur'
            />
      <!-- Invert drop shadow to make an inset shadow-->
      <feComposite
              operator='out'
              in='SourceGraphic'
              in2='offset-blur'
              result='inverse'
            />
      <!-- Cut colour inside shadow -->
      <feFlood
              flood-color='white'
              flood-opacity='.05'
              result='color'
            />
      <feComposite
              operator='in'
              in='color'
              in2='inverse'
              result='shadow'
            />
      <!-- Placing shadow over element -->
      <feComposite
              operator='over'
              in='shadow'
              in2='SourceGraphic'
            />
  </filter>
  </defs>
<g style="clip-rule:evenodd;fill-rule:evenodd;image-rendering:optimizeQuality;shape-rendering:geometricPrecision;text-rendering:geometricPrecision"><path filter="url(#stamp-inset-shadow1) url(#stamp-inset-shadow2)" fill="#86776f" d="M18.955 12.309c-.31-1.203.844-2.419 1.017-2.84.372-.795.26-.385.745-1.564.198-.508.719-2.034.918-2.27.57-.968 1.414-.844 2.53-1.675.608-.459 1.179-1.153 1.662-1.774.869-1.128 1.613-1.873 3.896-2.12.496-.05.868.173.868.136.93-.162 2.307-.422 3.51.148-1.265.583-1.463.943-2.307 1.824.038.124.062.57-.012.906-.335.955-.72 1.364-1.501 1.898-.112.074-1.228.558-2.245 1.228-1.216.781-1.353 1.116-1.762 1.7 1.166-.311 2.965-1.043 4.64-1.527a10.08 10.08 0 0 0 1.935-.794c.992-.508 1.39-.707 1.91-.769 2.035-.235 2.432.186 3.238 1.08 1.935-.261 2.593-.199 4.54.47-1.39 1.514-1.947 1.874-3.771 2.569-.285 1.166-.434 1.724-2.345 2.48-.483.2-.93.212-2.046.224-.745.012-1.353.075-2.072.223-1.712.373-3.647.583-4.813.869.645.31.905.533 2.357.657 1.215.1 2.431 0 2.568.013.93.099 1.463.273 2.208.955.235.26.409.657.446.794 1.166.372 1.501.595 2.89.508-.793 1.08-2.12 1.501-3.014 1.8-.012-.026-.248.334-.707.52-2.121.88-3.126.57-4.429-.012-.719-.323-1.55-.658-2.294-.77-1.39-.198-2.072.31-3.04-.272-.273-.112-1.451-1.204-1.885-1.563-.968-.82-.683-.509-1.39-1.018-.347-.297-1.935-.818-2.245-2.034z"/><path filter="url(#text-inset-shadow1) url(#text-inset-shadow2)" fill="#b7afa4" fill-rule="nonzero" d="m0 1.417 6.897 16.077 5.074-7.505 5.074 7.505 6.897-16.077h-5.719l-2.32 7.108L11.971.673 8.05 8.525 5.719 1.417zM45.13 9.295h3.089c1.116 0 2.12-.15 3.002-.46.893-.31 1.588-.769 2.109-1.364.52-.595.769-1.315.769-2.17 0-.857-.248-1.576-.77-2.147-.52-.583-1.215-1.017-2.108-1.303-.881-.285-1.886-.434-3.002-.434h-6.587v15.11h7.008c1.34 0 2.481-.137 3.424-.41.943-.273 1.663-.72 2.159-1.315.496-.607.744-1.414.744-2.419 0-.806-.186-1.488-.57-2.059a4.487 4.487 0 0 0-1.502-1.39 7.092 7.092 0 0 0-2.034-.793 10.413 10.413 0 0 0-2.22-.248H45.13v2.592h2.865c.273 0 .534.013.77.038.235.037.446.086.632.16.186.088.335.2.447.348.111.15.161.348.161.596 0 .397-.1.694-.285.88-.186.187-.422.31-.732.373-.298.05-.633.086-.993.086h-1.612V4.978h1.178c.558 0 .955.099 1.203.272.249.187.373.472.373.856 0 .26-.05.484-.162.67a1.176 1.176 0 0 1-.52.422c-.236.112-.534.161-.894.161H45.13zM62.795 8.972c0-.744.136-1.402.409-1.948.273-.558.67-.992 1.166-1.302.509-.31 1.104-.46 1.811-.46.757 0 1.377.15 1.873.46.497.31.869.744 1.13 1.302.26.546.384 1.204.384 1.948 0 .732-.137 1.377-.41 1.948a3.05 3.05 0 0 1-1.166 1.302c-.496.31-1.104.46-1.81.46-.708 0-1.303-.15-1.812-.46a3.132 3.132 0 0 1-1.166-1.302c-.273-.571-.41-1.216-.41-1.948Zm-5.024 0c0 1.203.21 2.307.62 3.312.41 1.005.98 1.86 1.737 2.605a7.649 7.649 0 0 0 2.654 1.687c1.03.397 2.171.596 3.4.596 1.24 0 2.369-.199 3.398-.596 1.03-.397 1.923-.955 2.667-1.687a7.8 7.8 0 0 0 1.737-2.605c.41-1.005.608-2.109.608-3.312 0-1.203-.199-2.295-.62-3.275a7.3 7.3 0 0 0-1.774-2.53 7.762 7.762 0 0 0-2.667-1.613c-1.03-.372-2.134-.558-3.35-.558-1.178 0-2.282.186-3.3.558a7.762 7.762 0 0 0-2.667 1.612 7.534 7.534 0 0 0-1.798 2.531c-.435.98-.645 2.072-.645 3.275zM82.407 8.972c0-.782.174-1.427.534-1.948a3.168 3.168 0 0 1 1.401-1.178c.583-.26 1.216-.385 1.923-.385.72 0 1.34.087 1.86.26.522.187.969.423 1.365.708a9.84 9.84 0 0 1 1.067.88V2.435a9.197 9.197 0 0 0-1.922-1.03c-.708-.272-1.6-.408-2.717-.408-1.303 0-2.494.186-3.573.558-1.08.372-1.997.905-2.766 1.612a7.269 7.269 0 0 0-1.762 2.531c-.422.98-.632 2.072-.632 3.275 0 1.203.21 2.307.632 3.275a7.269 7.269 0 0 0 1.762 2.53c.769.708 1.687 1.241 2.766 1.613 1.08.372 2.27.57 3.573.57 1.116 0 2.01-.148 2.717-.42.694-.286 1.34-.634 1.922-1.03v-4.876c-.31.298-.67.596-1.067.869a5.445 5.445 0 0 1-1.364.707c-.521.186-1.141.285-1.86.285-.708 0-1.34-.136-1.924-.397a3.168 3.168 0 0 1-1.401-1.178c-.36-.521-.534-1.166-.534-1.948ZM94.663 1.417v15.11h4.85V1.417zM108.247 10.051l3.672 6.476h5.495l-4.304-6.476Zm-4.416-8.634v15.11h4.739V1.417Zm3.064 3.995h2.865c.397 0 .732.062.993.161.26.112.459.273.595.471.137.211.199.472.199.77 0 .285-.062.545-.199.756-.136.211-.335.372-.595.484-.26.112-.596.161-.993.161h-2.865v3.56h3.3c1.476 0 2.68-.223 3.61-.67.93-.446 1.612-1.054 2.046-1.835.447-.794.658-1.675.658-2.667 0-1.005-.211-1.898-.658-2.68-.434-.769-1.116-1.39-2.046-1.836-.93-.446-2.134-.67-3.61-.67h-3.3zM123.183 14.58h7.976v-3.412h-7.976Zm3.945-6.303 1.848 4.168-.323 1.229 1.6 2.853h5.397L127.128.338l-8.523 16.189h5.397l1.637-3.002-.372-1.08zM138.342 1.417v15.11h4.751V1.417Zm3.064 3.784h2.865c.596 0 1.042.124 1.34.36.31.248.46.595.46 1.042 0 .446-.15.794-.46 1.03-.298.247-.744.371-1.34.371h-2.865v3.772h2.865c1.49 0 2.692-.211 3.623-.62.918-.422 1.612-1.018 2.047-1.8.434-.769.657-1.687.657-2.753 0-1.08-.223-2.01-.657-2.78-.435-.768-1.13-1.364-2.047-1.773-.93-.422-2.134-.633-3.623-.633h-2.865zM160.956 5.635h4.305V1.417h-13.373v4.218h4.317v10.892h4.751zM171.153 8.972c0-.744.137-1.402.41-1.948.273-.558.67-.992 1.166-1.302.508-.31 1.104-.46 1.81-.46.758 0 1.378.15 1.874.46.496.31.868.744 1.129 1.302.26.546.385 1.204.385 1.948 0 .732-.137 1.377-.41 1.948a3.05 3.05 0 0 1-1.166 1.302c-.496.31-1.104.46-1.811.46-.707 0-1.303-.15-1.811-.46a3.132 3.132 0 0 1-1.166-1.302c-.273-.571-.41-1.216-.41-1.948zm-5.024 0c0 1.203.211 2.307.62 3.312.41 1.005.98 1.86 1.737 2.605a7.649 7.649 0 0 0 2.655 1.687c1.03.397 2.17.596 3.399.596 1.24 0 2.37-.199 3.399-.596 1.03-.397 1.923-.955 2.667-1.687a7.8 7.8 0 0 0 1.737-2.605c.41-1.005.608-2.109.608-3.312 0-1.203-.199-2.295-.62-3.275a7.3 7.3 0 0 0-1.775-2.53 7.762 7.762 0 0 0-2.667-1.613c-1.03-.372-2.133-.558-3.35-.558-1.178 0-2.282.186-3.299.558a7.762 7.762 0 0 0-2.667 1.612 7.534 7.534 0 0 0-1.799 2.531c-.434.98-.645 2.072-.645 3.275zM190.828 10.051l3.672 6.476h5.495l-4.317-6.476Zm-4.416-8.634v15.11h4.738V1.417Zm3.064 3.995h2.865c.397 0 .732.062.993.161.26.112.459.273.595.471.137.211.199.472.199.77 0 .285-.062.545-.199.756-.136.211-.335.372-.595.484-.26.112-.596.161-.993.161h-2.865v3.56h3.3c1.476 0 2.679-.223 3.61-.67.93-.446 1.612-1.054 2.046-1.835.447-.794.658-1.675.658-2.667 0-1.005-.211-1.898-.658-2.68-.434-.769-1.116-1.39-2.047-1.836-.93-.446-2.133-.67-3.61-.67h-3.3z"/></g></svg>