<?xml version="1.0" encoding="UTF-8"?>
<!DOCTYPE svg PUBLIC "-//W3C//DTD SVG 1.1//EN" "http://www.w3.org/Graphics/SVG/1.1/DTD/svg11.dtd">
<!-- Creator: CorelDRAW 2017 -->
<svg xmlns="http://www.w3.org/2000/svg" xml:space="preserve" width="800px" height="300px" version="1.1" shape-rendering="geometricPrecision" text-rendering="geometricPrecision" image-rendering="optimizeQuality" fill-rule="evenodd" clip-rule="evenodd"
viewBox="0 0 163.74 61.4"
 xmlns:xlink="http://www.w3.org/1999/xlink">
 <g id="Layer_x0020_1">
  <metadata id="CorelCorpID_0Corel-Layer"/>
  <path fill="##000000" d="M42.05 26.34c-3.29,6.49 -6.65,3.76 -2.08,12.65 0.68,1.31 3.53,2.45 4.77,1.43 -0.6,-0.48 -1.47,-0.38 -1.82,-1.07l1.1 -0.29c1.19,-0.11 1.85,0.52 3.06,0.7 1.71,0.25 2.79,-0.37 3.49,-1.48 -1.41,0.16 -1.77,0.57 -2.28,-0.6 0.46,-0.37 0.52,-0.19 0.83,-0.83l-1.6 -0.03 0.6 -0.99c-2.14,0.38 -3.79,-0.6 -5.27,-1.87 -0.58,-0.49 -0.37,-0.73 -0.75,-1.39 -0.31,-0.54 -0.33,-0.26 -0.6,-0.97l5.07 -1.94c0.71,-0.4 0.92,-0.64 1.66,-0.94 0.03,3.44 1.87,4.22 4.23,5.47 2.32,1.23 3.31,2.27 6.4,3.27 1.76,0.56 3.34,1.06 4.74,1.81 -0.26,1.47 -3.93,4.65 -5.2,3.98 -0.64,-0.34 -2.16,-2.87 -4.66,-2.76 -2.35,0.1 -3.24,1.91 -3.22,4.27 0.03,-0.03 0.08,-0.13 0.09,-0.1 0.01,0.03 0.07,-0.08 0.09,-0.1 0.44,-0.66 0.58,-1.45 1.37,-1.89 0.94,-0.52 2.18,-0.31 2.92,0.26 1.53,1.19 -1.14,4.25 3.2,3.93 -0.69,1.96 -3.53,4.74 -2.63,6.95 0.24,0.6 1.1,1.46 1.72,1.59 -0.05,-0.6 -0.2,-1.44 0.22,-1.87 0.74,0.67 0.33,2.9 2.85,3.33l-0.47 -2.12 0.5 -0.17c0.19,-0.06 0.24,-0.05 0.43,-0.13 1.69,-0.63 0.77,-3.15 1.7,-6.5 0.22,-0.81 0.55,-0.8 0.87,-1.47 1.36,-2.8 0.65,-1.66 3.24,-4.27 0.4,-0.4 0.69,-0.75 1.18,-1.15 0.57,-0.47 0.96,-0.51 1.33,-1.18 0.84,-1.56 -0.02,-2.33 -1.12,-2.98 -2.19,-1.29 -4.06,-2.41 -5.19,-4.7 3.4,1.16 2.05,2.71 6.16,1.26l2.71 2.8c2.79,1.77 4.06,0.72 11.13,5.51 2.12,1.44 4.51,2.92 6.33,4.77 1.4,1.42 1.2,1.63 2.09,3.45 0.72,1.47 1.19,2.54 1.49,4.28 -1.55,-0.27 -1.49,-2.69 -4.4,-2.32 -1.69,0.22 -2.99,1.81 -3.26,3.57 0.63,-0.2 0.9,-0.71 1.4,-1.15 0.53,-0.46 0.99,-0.71 1.94,-0.51 1.5,0.33 2.15,1.53 1.43,2.94 -1.31,0.25 -3.55,0.01 -4.23,2.27l1.26 -0.36c-0.31,0.77 -0.8,1.13 -0.94,2.13 0.84,-0.46 1.19,-1.03 2.53,-1.01 0.79,1.31 -0.18,1.91 3.96,1.38 1.36,-0.17 2.77,-0.01 4.1,-0.13 0.75,-0.06 0.74,-0.09 1.07,-0.45 0.86,-1.18 -0.28,-5.81 -0.68,-7.14 0.57,-0.28 0.79,-0.07 1.37,-0.54l-1.26 -0.75c-0.11,-1.83 -0.78,-1.26 -1.8,-3.33 -0.68,-1.38 -0.86,-2.44 -1.14,-4.09 -0.35,-2.1 -3.05,-1.59 -5.4,-5.11 -1.48,-2.22 -2.03,-4.38 -4.66,-5.73 -1.37,-0.7 -2.68,-0.43 -3.87,-1.3 -1,-0.74 -1.81,-1.62 -2.01,-3.26 1.97,-1.37 1.47,-1.85 4.39,-2.39 1.98,-0.37 3.67,-0.8 5.53,-1.28 5.26,-1.34 10.23,-3.29 15.37,-5.02 1.66,-0.56 3.52,-0.95 5.31,-1.48 3.56,-1.06 6.93,-2.22 10.53,-3.25 3.45,-0.98 6.91,-2.02 10.45,-3.15 5.55,-1.77 15.71,-4.97 21.28,-5.9 3.15,-0.52 6.37,-0.88 9.56,-0.66 1.06,0.07 2.12,0.42 3.18,0.36 -0.46,-1.05 -4.47,-2.03 -5.64,-2.36 -2.23,-0.64 -4.52,-0.98 -6.9,-1.08 -9.82,-0.42 -19.49,1.49 -29.1,2.96 -2.34,0.36 -4.72,0.67 -7.02,1.01 -2.42,0.36 -4.8,0.33 -7.22,0.81 -2.6,0.51 -11.87,1.53 -14.56,1.61 -3.7,0.12 -7.82,0.48 -11.53,-0.21 -1.06,-0.2 -2.7,-0.24 -3.59,-0.5 -2.2,-0.64 -4.47,-0.88 -6.57,-1.48l-8.8 -0.62 -9.24 0.53c-0.82,0.02 -1.04,0.25 -1.79,0.24 -0.87,-0.01 -0.78,-0.22 -1.75,0.02 -2.02,0.5 -5.04,0.7 -7.22,0.84 -4.33,0.29 -3.56,0.51 -6.92,-1.62 -0.7,-0.44 -0.13,0 -0.62,-0.46l-1.11 -0.86c-2.67,-2.22 -7.5,-4.54 -10.88,-5.22 -2.16,-0.44 -4.95,-0.1 -7.02,0.24 -1.71,0.27 -2.27,-0.43 -3.64,-0.26 -0.89,0.11 -1.79,1.02 -2.46,1.48 -1.1,0.75 -2.01,0.44 -3.24,0.86 -1.08,0.36 -1.16,0.97 -2.64,1.31 -1.16,0.26 -2.26,0.47 -3.05,1.06 -1.01,0.76 -1.71,3.28 -0.83,4.43 0.35,0.47 0.56,0.9 0.92,1.22 1.49,1.36 4.66,0.92 6.99,1.08 8.72,0.6 8.38,1.6 13.79,2.3 3.24,0.42 3.51,0.73 6.04,2 4.08,2.05 3.39,4.61 5.39,6.6 3.45,3.43 4.87,2.36 8.52,3.81z"/>
 </g>
</svg>
