<svg width="76.989" height="100" viewBox="0 0 20.37 26.458" xml:space="preserve" xmlns="http://www.w3.org/2000/svg">
<defs>
    <filter id='inset-shadow'>
      <!-- Shadow offset -->
      <feOffset
              dx='0.4'
              dy='-0.4'
            />
      <!-- Shadow blur -->
    <feGaussianBlur
              stdDeviation='0.2'
              result='offset-blur'
            />
      <!-- Invert drop shadow to make an inset shadow-->
      <feComposite
              operator='out'
              in='SourceGraphic'
              in2='offset-blur'
              result='inverse'
            />
      <!-- Cut colour inside shadow -->
      <feFlood
              flood-color='black'
              flood-opacity='1'
              result='color'
            />
      <feComposite
              operator='in'
              in='color'
              in2='inverse'
              result='shadow'
            />
      <!-- Placing shadow over element -->
      <feComposite
              operator='over'
              in='shadow'
              in2='SourceGraphic'
            />
  </filter>
  </defs>
<g filter="url(#inset-shadow)" style="clip-rule:evenodd;fill-rule:evenodd;image-rendering:optimizeQuality;shape-rendering:geometricPrecision;text-rendering:geometricPrecision"><path d="M7.85 14.36c-.13-.21-.16-.27-.4-.52-.06-.07-.12-.14-.17-.21a.842.842 0 0 1-.13-.25c-.06-.14-.15-.28-.24-.41-.1-.14-.19-.27-.24-.42-.03-.07-.06-.13-.09-.2-.03-.06-.06-.12-.1-.19-.04-.07-.09-.14-.12-.21-.04-.08-.07-.16-.09-.24-.01-.01-.01-.03-.01-.04-.01-.01-.01-.02-.02-.03a.653.653 0 0 0-.07-.08c-.04-.04-.08-.08-.18-.23-.09-.14-.16-.28-.22-.42v-.01c-.07-.15-.07-.2-.08-.27 0-.03 0-.07-.02-.15-.05-.23-.16-.36-.24-.47-.04-.05-.08-.09-.11-.14a.502.502 0 0 1-.05-.13c-.01-.03-.02-.06-.03-.07-.04-.08-.08-.17-.13-.25-.04-.06-.07-.12-.1-.17-.08-.15-.1-.21-.12-.28-.01-.03-.02-.07-.05-.14-.03-.07-.06-.13-.09-.2-.04-.07-.08-.14-.12-.2l-.01-.01c-.04-.06-.09-.13-.14-.19-.02-.04-.04-.06-.06-.07-.07-.08-.08-.1-.07-.2.02-.25-.12-.46-.27-.69l-.05-.06c-.05-.08-.06-.13-.07-.18 0-.02 0-.04-.01-.06-.02-.07-.09-.26-.17-.45-.07-.16-.14-.32-.16-.34-.14-.18-.17-.31-.22-.47-.01-.06-.03-.11-.05-.18a1.26 1.26 0 0 0-.13-.26c-.03-.04-.05-.09-.08-.14-.1-.17-.16-.34-.22-.5-.14-.37-.49-.83-.4-1.22.01-.04 0-.04-.01-.06a.682.682 0 0 1-.05-.07c-.05-.07-.08-.13-.12-.2v-.01c-.03-.05-.05-.1-.08-.15-.04-.09-.08-.18-.13-.26-.02-.03-.04-.05-.05-.07-.04-.05-.08-.09-.1-.17-.01-.03-.03-.08-.04-.13-.08-.23-.16-.47-.15-.72.01-.03.01-.04.01-.05 0-.03 0-.04-.03-.1-.03-.07-.08-.15-.14-.24-.12-.2-.26-.43-.29-.61L1.32.44l.14.02c.01 0 .01.01.02.01s.01 0 .01.01h.01l.07.05h.01c.17.16.31.32.43.49.12.17.21.36.29.58l.03.08c.05.14.07.2.1.25.05.1.12.18.18.26.03.04.06.09.08.14.02.03.03.05.04.07.06.11.13.21.2.31s.14.19.22.3c.06.06.06.12.07.2.01.13.02.34.4.8l.05.07-.01.01h.01c.05.07.09.18.14.31.05.13.11.28.18.39.03.05.07.1.11.14.05.07.1.13.14.21.03.06.14.28.22.46.06.12.1.23.11.26.04.35.18.53.34.71.17.22.37.46.47.99.03.15.12.36.2.54.01.04.03.07.05.12l.03.09c.03.08.07.18.1.22.18.22.24.38.33.6.02.05.04.1.04.11.05.12.12.22.19.32.12.18.23.35.25.65.01.11 0 .15-.01.18.01.01.02.04.04.08.02.05.05.1.06.12.03.06.03.07.04.09.04.08.08.16.12.25.14.34.18.39.23.45.04.05.08.1.16.24.16.28.17.43.18.56 0 .05.01.09.02.13.03.1.08.19.13.29.07.13.14.26.17.41v.16c0 .01.04.06.1.13.08.11.18.25.24.36.04.05.06.11.09.18.02.06.03.12.05.18.02.14.05.23.08.32.02.06.04.11.06.18.02.07.04.13.06.18.02.06.04.1.06.16 0 .03.02.05.03.07.01.02.03.04.04.07l.1.21-.22-.07c-.05-.02-.12-.1-.19-.21-.11-.15-.24-.35-.28-.41-.03-.06-.06-.11-.08-.16ZM.09 4.79 0 4.67l.08-.02.07-.06-.06-.07.08-.06c.08-.07.16-.05.23-.04h.01l.04.01.03.03c.03.04.05.08.06.12.02.04.03.08.08.13.02.03.04.05.06.07.06.05.11.1.15.19.03.05.04.08.06.1.07.13.1.2.25.36.07.07.12.15.17.23.05.09.11.18.2.25 0 .01.01.02.02.02.06.05.06.05.08.15.01.05.02.11.04.16s.05.11.08.16c.15.24.2.26.26.29.04.01.08.03.14.09.18.16.21.31.24.42.01.04.02.07.03.09.01.02.03.05.06.08.04.05.08.11.11.17.1.22.19.34.26.43.1.14.18.25.25.55.01.04.02.07.02.09 0 .02 0 .03.06.05.11.05.18.14.24.24.05.09.08.18.1.26.03.12.05.14.08.17.05.05.11.11.22.31.02.03.04.07.07.12.02.04.04.08.06.11.04.06.04.1.05.15.01.03.01.06.03.1.04.06.08.12.13.18.07.1.15.19.18.33.02.08.04.15.07.22.03.08.07.15.11.23.1.18.13.26.17.39.01.03.02.06.03.11.07.2.14.23.27.29.01.01.02.01.04.02l.05.02v.06c.01.03.01.04.01.05.01.06.01.1.03.17.01.05.03.1.05.15.01.02.01.04.02.07.05.16.06.24.06.29 0 .05.01.08.04.15.01.01.03.04.04.08.06.12.14.27.24.35l.02.02c.04.02.08.04.1.1 0 .02.01.04.01.06.01.03.01.05.01.07.01.05.01.05.01.06.01.01.02.03.02.06.01.03 0 .07-.01.1 0 .03-.02.05-.04.08l-.01.01s-.07.04-.14.05c-.03 0-.07 0-.11-.01-.05-.01-.1-.04-.12-.09-.04.01-.06 0-.14-.05l-.04-.02-.01-.04c0-.04-.01-.06-.01-.08-.02-.12-.03-.21-.16-.36-.08-.1-.12-.12-.14-.13-.05-.04-.06-.05-.24-.35-.13-.22-.19-.28-.25-.33-.04-.04-.08-.08-.14-.16-.02-.04-.05-.08-.08-.13-.02-.04-.05-.08-.07-.11a.453.453 0 0 0-.12-.12c-.03-.03-.07-.06-.1-.1l-.01-.01v-.01c-.01-.02-.01-.04-.02-.06-.01-.12-.06-.45-.37-.72-.07-.07-.14-.13-.2-.2s-.12-.15-.16-.24c-.03-.05-.04-.09-.05-.12l-.03-.09c-.01-.01-.01-.03-.02-.04a.078.078 0 0 0-.04-.04c0-.01-.01-.01-.01-.02l-.04-.04v-.01l-.02-.05c-.02-.02-.02-.04-.02-.05v-.01c-.02-.01-.04-.02-.05-.02-.02-.01-.04-.02-.05-.02-.12-.08-.14-.2-.16-.29 0-.02 0-.03-.01-.04-.02-.11-.07-.21-.12-.31a.83.83 0 0 1-.12-.25l-.01-.01c-.01-.02-.01-.03-.01-.04 0 0-.01 0-.01-.01-.01 0-.03-.02-.04-.03a2 2 0 0 1-.33-.44c-.07-.11-.13-.22-.19-.32-.04-.08-.09-.17-.14-.25-.03-.05-.05-.07-.07-.1-.05-.05-.08-.09-.11-.22-.03-.1-.06-.19-.09-.27-.04-.09-.09-.16-.16-.25-.06-.07-.07-.16-.08-.24 0-.03-.01-.05-.01-.08l-.09-.27c-.04-.09-.08-.18-.13-.28-.1-.19-.18-.27-.29-.39-.04-.03-.08-.07-.14-.13l-.01-.02-.01-.01c-.01-.02-.01-.03-.01-.05 0-.05.01-.38-.14-.6l-.06-.09.02-.01c-.01-.01-.01-.03-.02-.05-.01-.07 0-.11.03-.14-.03-.01-.06-.03-.1-.08Z" style="fill:none" transform="matrix(1.73954 0 0 1.73954 0 0)"/><path fill="#c9c3bb" d="M15.708 8.61c-.017-.121-.017-.19-.191-.295l-.087-.052.017-.105c0-.07.017-.121.052-.19.035-.105.087-.227.122-.401.017-.07.017-.278-.017-.47-.018-.104-.035-.191-.053-.208-.521-.505-.452-.783-.4-1.044.035-.122.053-.226-.052-.365l-.017-.018c-.209-.296-.226-.33-.209-.678.017-.07.017-.174.017-.296.018-.33.035-.73.087-.887l.105-.296.191.244c.244.313.261.487.296.765.017.052.017.122.035.191 0 .053 0 .087.017.105v.017c.017.018.052.035.104.07.105.052.174.139.244.226a.82.82 0 0 1 .104.26c.018.018.018.053.035.088.017.104.052.226.087.26.017 0 .052.018.087.036.244.139.609.33.244 1.235-.018.034 0 .052.034.104.035.052.07.104.105.191.104.192.156.313.191.4a.463.463 0 0 0 .07.14s.017.017.052.017l.139.07c.47.243.418.591.348.921-.017.122-.035.244 0 .314.017.034.052.07.087.104.156.174.33.383.174.748.122.07.226.14.278.365.07.279.018.47 0 .627-.035.156-.07.243.226.4.087.052.157.087.21.121.277.14.312.157.33.453.017.33.121.608.226.939l.017.035c.07.209 0 .522-.052.748-.017.07-.017.122-.035.156-.035.226 0 .279.052.348.053.087.122.192.14.435l.017.522a.697.697 0 0 1 .156.244c.053.121.07.226.087.347 0 .035 0 .07.018.105.017.139.035.156.104.226.018.017.035.052.087.087l.07.087-.052.087c-.035.104-.07.209-.087.313-.018.07-.035.157-.035.244 0 .07.017.19.052.313.017.07.035.121.07.156.243.052.452.105.47.522.017.087 0 .226-.018.348-.018.07-.035.157-.07.209.122.174.14.348.157.522.017.034.017.052.017.104.035.174.07.226.105.278.034.087.087.157.104.33 0 .105 0 .21-.017.314a2.463 2.463 0 0 1-.07.348c-.017.07-.087.226-.14.365a1.718 1.718 0 0 1-.156.261l-.139.157-.122-.174c-.052-.07-.104-.33-.139-.505-.017-.035-.017-.07-.017-.087-.035-.122-.052-.191-.087-.243a1.318 1.318 0 0 0-.174-.244l-.018-.017-.017-.035a.192.192 0 0 1 0-.14c0-.069.035-.26-.122-.712-.035-.07-.035-.122-.052-.174-.017-.018-.017-.053-.017-.07-.07.14-.313-.365-.33-.54v-.121c-.018-.14-.018-.26-.088-.33-.382-.331-.417-.522-.452-.731-.017-.104-.035-.226-.209-.4a.78.78 0 0 1-.226-.696c.035-.157.087-.313.174-.47-.122-.087-.157-.104-.296-.33-.104-.174-.139-.174-.208-.209-.035-.017-.087-.035-.157-.07l-.07-.034-.017-.087c-.157-.73-.157-.748-.035-1.114.018-.07.052-.156.087-.243a2.038 2.038 0 0 0-.278-.261c-.226-.226-.47-.452-.487-.644a.941.941 0 0 1 0-.382c.017-.14.035-.227-.105-.296l-.121-.07.017-.121s-.017 0-.017-.018l-.087-.104.087-.105c.052-.07.087-.104.121-.104.035-.017-.034.017-.034-.017 0-.035.017-.087.017-.122.017-.07.017-.104.017-.14-.017-.069-.017-.104-.017-.138a.223.223 0 0 1-.07-.174c-.104-.035-.19-.157-.226-.487-.017-.07-.017-.122-.017-.174-.017-.122-.017-.244-.052-.4-.035-.087-.07-.14-.105-.21a.94.94 0 0 1-.174-.417c0-.052-.017-.104-.017-.156Zm-.104-3.965c.017.017.017 0 0 0zM8.454 4.123c-.035-.366-.052-.383-.33-.644l-.105-.087.07-.122v-.034c0-.087 0-.174-.018-.279a1.46 1.46 0 0 0-.121-.33c-.018-.052-.07-.122-.105-.192-.121-.226-.278-.487-.278-.678-.017-.122-.017-.209-.017-.278 0-.157 0-.244-.035-.487C7.48.696 7.41.609 7.306.452 7.289.417 7.271.4 7.254.348 7.219.313 7.219.313 7.219.296L7.202.278 7.132.14 7.393 0h.052c.766.104.87.73.974 1.287v.018c.018.087.053.104.087.139.07.035.14.07.226.174.174.191.296.4.4.609.07.139.14.278.227.4.104.139.104.226.104.348 0 .104-.017.243.313.608.365.366.383.488.418.731 0 .087.017.191.052.313.07.313.226.574.4.853 0 .017-.035-.053.035.087.156.26.191.417.226.608.017.105.035.226.087.4.07.157.122.244.191.296.087.052.192.087.313.122.07.017.087.017.122.017h.209l.035.14c.017.086 0 .139 0 .208v.035c0 .087 0 .174.034.278.018.122.035.226.07.296.157.592.14.818.14.957-.018.087-.018.122.069.278.035.052.07.122.122.191.156.331.313.61.748.714l.086.017.035.07c.087.208.157 1.026.192 1.357v.017c.07.713.087.73.226.904.07.07.156.157.26.331.244.348.21.557.14.852h.017c.052.018.105.035.174.07.452.226.522.626.592 1.044.017.174.052.365.139.522.052.086.087.173.122.26.174.314.33.61.382 1.01l.018.104c.034.208.052.295.07.365.017.035.034.087.069.157.017.052.052.139.104.26a2.19 2.19 0 0 1 .122.348c.052.227.052.348.035.522l-.018.018c.035 0 .053.017.07.017.087.052.174.087.26.174.14.122.28.365.384.591.121.279.208.575.208.731-.034 1.235.157 1.461.296 1.618.087.104.14.174.191.313.053.174.053.452.053.661 0 .07 0 .122.017.174 0 .383.052.417.14.504.051.053.086.087.138.157.174.191.261.417.33.644.018.07.036.121.053.191.017.035.052.087.07.122.052.104.104.208.121.313l.053.383-.331-.227c-.191-.139-.33-.26-.47-.4a2.64 2.64 0 0 1-.382-.47c-.053-.086-.087-.156-.14-.226-.052-.086-.104-.173-.173-.26a2.764 2.764 0 0 1-.314-.522c-.07-.14-.139-.279-.226-.418-.104-.174-.174-.226-.226-.243-.087-.07-.139-.105-.139-.279-.017-.139-.035-.295-.07-.435-.034-.156-.087-.295-.139-.434-.139-.261-.226-.348-.295-.4-.105-.087-.157-.14-.157-.348 0-.192-.017-.366-.035-.54a4.62 4.62 0 0 0-.156-.556c-.4-1.027-.783-1.253-1.044-1.41-.122-.069-.226-.121-.296-.243l-.035-.052v-.07c.122-.643.035-.817-.191-1.374-.035-.104-.052-.104-.07-.156a4.597 4.597 0 0 1-.208-.696c-.018-.07-.035-.14-.052-.157a5.573 5.573 0 0 0-.244-.66c-.104-.227-.191-.418-.261-.505a2.104 2.104 0 0 0-.278-.279c-.174-.156-.33-.295-.435-.539-.087-.156-.087-.226-.105-.348v-.087c-.034-.209-.104-.348-.173-.487-.122-.243-.261-.504-.227-.974v-.104l-.052-.053c-.139-.121-.191-.173-.26-.434a2.78 2.78 0 0 1-.088-.366c-.017-.208-.052-.4-.139-.556a.645.645 0 0 1-.14-.296c-.016-.052-.051-.104-.086-.174-.052-.14-.14-.244-.209-.348-.156-.191-.295-.383-.348-.678v-.018l-.017-.174v-.017a1.869 1.869 0 0 0-.122-.592 2.044 2.044 0 0 0-.348-.556c-.191-.226-.208-.261-.313-.522l-.07-.14c-.121-.26-.226-.521-.382-.817l-.018-.052c-.121-.209-.173-.313-.19-.417-.036-.087-.036-.157-.053-.314 0-.052-.017-.104-.017-.208-.018-.053-.018-.105-.018-.174Z"/></g></svg>