<?xml version="1.0" encoding="UTF-8"?>
<!DOCTYPE svg PUBLIC "-//W3C//DTD SVG 1.1//EN" "http://www.w3.org/Graphics/SVG/1.1/DTD/svg11.dtd">
<!-- Creator: CorelDRAW 2017 -->
<svg xmlns="http://www.w3.org/2000/svg" xml:space="preserve" width="50px" height="43px" version="1.1" shape-rendering="geometricPrecision" text-rendering="geometricPrecision" image-rendering="optimizeQuality" fill-rule="evenodd" clip-rule="evenodd"
viewBox="0 0 0.63 0.55"
 xmlns:xlink="http://www.w3.org/1999/xlink">
 <g id="Layer_x0020_1">
  <metadata id="CorelCorpID_0Corel-Layer"/>
  <path fill="#86776f" d="M0.26 0.5c-0.01,0 -0.02,0 -0.02,0 -0.01,0 -0.02,-0.01 -0.03,-0.01 -0.01,0 -0.02,0 -0.03,0.01 -0.01,0.01 -0.01,0.01 -0.02,0.02 0,0 0,0.01 0,0.01 0,0 -0.01,0.01 -0.01,0.01 0,0.01 -0.02,0.01 -0.02,0 -0.01,0 -0.02,-0.01 -0.02,-0.01 -0.01,-0.01 -0.01,-0.01 -0.02,-0.02 -0.01,0 -0.01,-0.01 -0.02,-0.01 0,0 0,0 0,-0.01 -0.05,-0.05 -0.07,-0.14 -0.07,-0.2 0.01,-0.11 0.06,-0.2 0.15,-0.26 0.04,-0.02 0.08,-0.03 0.12,-0.03 0.01,0 0.02,0 0.03,0 0,0 0,0.01 0,0.01 0,0.01 -0.02,0.01 -0.03,0.02 0,0 -0.01,0 -0.02,0 -0.01,0.01 -0.02,0.02 -0.04,0.03 -0.01,0 -0.02,0.01 -0.03,0.02 -0.01,0.01 -0.02,0.02 -0.02,0.04 -0.03,0.03 -0.04,0.07 -0.05,0.11 0,0.02 0,0.06 0.01,0.08 0.01,0.01 0.03,0.03 0.04,0.03 0,0.01 0.01,0.01 0.02,0.01 0.01,0 0.02,0 0.03,0 0.01,0 0.02,0 0.03,0.01 0.01,0 0.02,0 0.03,0.01 0.02,0 0.03,0.01 0.04,0.03 0,0 0,0 0,0.01 0,0 0,0.01 -0.01,0.02 0,0 0,0 -0.01,0 -0.01,0.02 -0.01,0.02 -0.01,0.03 0,0 0,0.01 0,0.01 0,0 0,0.01 0,0.01 -0.01,0 -0.01,0.01 -0.01,0.01 0,0.01 0,0.01 -0.01,0.01z"/>
  <path fill="#86776f" d="M0.59 0.5c-0.01,0 -0.02,0 -0.03,0 0,0 -0.01,-0.01 -0.02,-0.01 -0.01,0 -0.03,0 -0.03,0.01 -0.01,0.01 -0.02,0.01 -0.02,0.02 0,0 0,0.01 0,0.01 -0.01,0 -0.01,0.01 -0.01,0.01 -0.01,0.01 -0.02,0.01 -0.03,0 0,0 -0.01,-0.01 -0.01,-0.01 -0.01,-0.01 -0.02,-0.01 -0.02,-0.02 -0.01,0 -0.01,-0.01 -0.02,-0.01 0,0 0,0 -0.01,-0.01 -0.04,-0.05 -0.07,-0.14 -0.06,-0.2 0,-0.11 0.06,-0.2 0.15,-0.26 0.04,-0.02 0.08,-0.03 0.12,-0.03 0.01,0 0.02,0 0.03,0 0,0 0,0.01 0,0.01 0,0.01 -0.02,0.01 -0.03,0.02 -0.01,0 -0.01,0 -0.02,0 -0.01,0.01 -0.03,0.02 -0.04,0.03 -0.01,0 -0.02,0.01 -0.03,0.02 -0.01,0.01 -0.02,0.02 -0.03,0.04 -0.02,0.03 -0.04,0.07 -0.04,0.11 0,0.02 0,0.06 0.01,0.08 0.01,0.01 0.02,0.03 0.03,0.03 0.01,0.01 0.02,0.01 0.03,0.01 0.01,0 0.02,0 0.03,0 0.01,0 0.02,0 0.03,0.01 0,0 0.02,0 0.02,0.01 0.02,0 0.04,0.01 0.04,0.03 0,0 0,0 0,0.01 0,0 0,0.01 0,0.02 0,0 -0.01,0 -0.01,0 -0.01,0.02 -0.01,0.02 -0.01,0.03 0,0 -0.01,0.01 -0.01,0.01 0,0 0,0.01 0,0.01 0,0 0,0.01 0,0.01 -0.01,0.01 -0.01,0.01 -0.01,0.01z"/>
 </g>
</svg>
