<svg width="806.993" height="299.96" viewBox="0 0 213.517 79.364" version="1.1" id="svg1" xml:space="preserve" xmlns="http://www.w3.org/2000/svg">
<defs>
    <filter id='inset-shadow1'>
      <!-- Shadow offset -->
      <feOffset
              dx='0.6'
              dy='0.6'
            />
      <!-- Shadow blur -->
    <feGaussianBlur
              stdDeviation='0.5'
              result='offset-blur'
            />
      <!-- Invert drop shadow to make an inset shadow-->
      <feComposite
              operator='out'
              in='SourceGraphic'
              in2='offset-blur'
              result='inverse'
            />
      <!-- Cut colour inside shadow -->
      <feFlood
              flood-color='black'
              flood-opacity='1'
              result='color'
            />
      <feComposite
              operator='in'
              in='color'
              in2='inverse'
              result='shadow'
            />
      <!-- Placing shadow over element -->
      <feComposite
              operator='over'
              in='shadow'
              in2='SourceGraphic'
            />
  </filter>
  <filter id='inset-shadow2'>
      <!-- Shadow offset -->
      <feOffset
              dx='-0.25'
              dy='-0.25'
            />
      <!-- Shadow blur -->
    <feGaussianBlur
              stdDeviation='0.3'
              result='offset-blur'
            />
      <!-- Invert drop shadow to make an inset shadow-->
      <feComposite
              operator='out'
              in='SourceGraphic'
              in2='offset-blur'
              result='inverse'
            />
      <!-- Cut colour inside shadow -->
      <feFlood
              flood-color='white'
              flood-opacity='.3'
              result='color'
            />
      <feComposite
              operator='in'
              in='color'
              in2='inverse'
              result='shadow'
            />
      <!-- Placing shadow over element -->
      <feComposite
              operator='over'
              in='shadow'
              in2='SourceGraphic'
            />
  </filter>
  </defs>
<g filter="url(#inset-shadow1) url(#inset-shadow2)" id="layer1" transform="translate(1.913 -108.818)"><g id="Layer_x0020_1" transform="matrix(.00742 0 0 .00742 -1.915 108.817)" style="clip-rule:evenodd;fill-rule:evenodd;image-rendering:optimizeQuality;shape-rendering:geometricPrecision;text-rendering:geometricPrecision"><g id="_2089678403328"><path fill="#86776F" d="M15 8708c-49-109 39-243 48-285 22-81 19-41 44-160 11-51 35-204 49-228 38-101 119-104 211-201 50-53 92-128 127-195 64-120 121-203 332-264 46-13 85 1 84-2 85-30 210-78 333-44-109 76-122 113-186 210 5 12 15 52 13 85-15 96-45 141-109 204-9 9-107 73-192 153-102 95-108 128-137 190 104-48 262-147 412-221 63-32 112-63 169-106 85-66 118-91 167-105 188-56 232-23 324 47 178-56 241-62 435-31-106 166-152 209-313 305-8 115-13 170-179 273-43 27-85 35-190 56-70 13-126 29-191 55-155 63-334 115-439 161 65 19 94 36 232 24 116-11 229-41 243-42 89-6 142 1 224 54 26 20 50 55 55 67 116 16 152 31 281 0-57 114-175 176-254 220-2-3-18 35-58 61-186 117-286 105-418 72-74-18-157-37-229-35-135 5-190 63-291 25-28-6-158-90-204-116-105-60-73-36-148-73-38-22-196-45-245-154z" id="path1"/><path fill="#86776F" d="M7035 6269c-48-109 40-243 49-286 22-80 19-40 44-159 11-52 34-204 49-229 38-101 119-103 211-201 50-52 92-127 127-194 63-120 121-203 332-264 46-13 85 1 84-3 85-29 210-77 333-43-109 76-122 113-186 210 5 11 15 52 13 85-15 96-45 141-109 204-10 9-107 73-192 153-102 95-108 128-138 189 105-48 263-146 413-221 63-31 112-62 168-106 86-65 119-90 168-105 188-55 232-22 323 48 178-56 241-62 436-31-106 166-152 209-313 305-8 115-13 170-179 273-43 27-85 35-190 55-70 14-126 29-192 56-155 63-334 115-439 161 66 19 95 36 233 23 116-10 229-40 242-41 90-7 143 1 225 54 26 20 50 55 55 67 115 16 151 31 281 0-57 114-176 176-255 220-1-3-17 35-57 60-186 118-286 106-418 73-74-18-157-37-230-35-134 5-190 63-290 24-28-5-158-89-204-115-105-61-73-36-148-73-38-22-197-45-246-154z" id="path2"/><path fill="#86776F" d="M4434 10105c-29-115 81-232 98-273 35-75 25-36 70-149 20-49 70-195 88-217 55-92 135-81 243-161 59-43 113-109 159-169 83-108 154-179 373-203 47-5 83 16 83 12 89-14 220-39 336 15-121 56-140 90-221 175 4 12 6 54-1 86-32 92-69 131-143 181-11 8-118 55-216 118-116 76-129 107-168 163 111-29 284-99 444-146 68-20 121-42 185-75 95-50 133-69 183-75 195-22 233 19 310 104 186-25 249-20 434 45-133 145-186 179-360 246-28 111-42 164-224 238-47 18-90 19-197 21-71 1-129 7-198 21-164 35-349 56-460 83 61 30 86 52 225 63 116 10 232 0 245 1 90 10 141 26 212 92 22 25 40 63 43 76 111 36 144 57 276 49-75 102-203 143-288 172-2-3-24 32-68 50-203 83-299 54-424-1-69-31-148-64-220-74-133-19-198 29-290-27-27-10-140-115-181-149-93-78-66-49-133-98-33-28-186-78-215-194z" id="path3"/><path fill="#86776F" d="M11455 7666c-29-116 81-232 97-273 36-75 26-36 71-149 20-49 70-195 88-217 55-93 135-81 243-161 58-43 113-109 159-169 83-108 154-179 373-203 47-5 83 16 83 12 89-14 220-39 335 15-120 56-139 90-220 174 3 13 6 55-1 87-32 92-69 131-143 181-11 8-118 54-216 118-117 76-129 107-168 163 111-29 284-99 444-146 68-20 121-42 185-75 95-50 133-69 183-75 195-22 233 18 310 103 185-24 248-19 434 46-133 145-186 179-360 245-28 112-42 165-225 238-47 19-89 20-196 22-72 1-129 7-198 21-164 35-349 56-461 83 62 30 87 52 225 63 117 10 233 0 246 1 90 10 141 26 212 92 22 25 39 63 43 76 111 36 143 57 276 49-76 102-203 143-288 172-2-3-24 32-68 50-204 83-300 54-424-1-69-31-148-64-220-74-133-19-198 29-291-27-26-10-139-115-180-149-93-78-66-49-133-98-34-28-186-78-215-194z" id="path4"/><path fill="#86776F" d="M14056 3830c-49-109 40-243 49-286 22-80 19-40 44-159 11-52 34-204 49-229 38-101 119-103 211-201 50-52 92-127 127-194 63-121 120-203 332-264 46-13 85 1 84-3 85-29 210-77 333-43-109 76-122 112-187 209 6 12 16 53 14 86-15 96-45 141-109 203-10 10-107 74-193 154-101 95-108 127-137 189 104-48 262-147 412-221 64-31 112-62 169-106 85-65 119-90 168-105 188-55 232-22 323 48 178-56 241-62 435-31-105 166-152 209-312 305-8 115-13 170-180 273-43 27-84 35-189 55-71 14-126 29-192 56-155 63-334 115-439 161 66 19 95 36 233 23 116-10 229-40 242-41 90-7 143 1 225 53 26 21 49 56 55 67 115 17 151 32 280 1-56 114-175 176-254 219-2-3-17 36-57 61-187 118-286 106-418 73-74-19-158-37-230-35-134 4-190 63-291 24-28-5-157-89-203-115-106-61-74-37-148-73-38-22-197-45-246-154z" id="path5"/><path fill="#86776F" d="M21077 1391c-49-109 39-243 49-286 22-80 18-40 43-159 11-52 35-204 49-229 39-101 119-104 212-201 50-52 91-127 127-194 63-121 120-203 332-264 45-13 84 1 84-3 85-30 210-77 333-43-109 75-122 112-187 209 6 12 16 53 14 86-15 96-45 141-110 203-9 9-107 74-192 154-101 94-108 127-137 189 104-48 262-147 412-221 64-31 112-62 169-106 85-65 119-91 167-105 189-55 233-23 324 48 178-56 241-62 435-31-106 166-152 209-312 305-8 114-13 169-180 273-43 27-84 35-189 55-71 14-126 29-192 56-155 62-334 115-439 161 65 19 94 36 233 23 116-11 229-40 242-41 90-7 143 1 224 53 26 21 50 55 56 67 115 17 151 32 280 0-56 115-175 177-254 220-2-3-17 36-58 61-186 118-285 105-418 73-73-19-157-37-229-35-134 4-190 63-291 24-28-5-157-89-203-115-106-61-74-37-148-74-38-21-197-44-246-153z" id="path6"/><path fill="#86776F" d="M18476 5227c-29-116 81-232 97-273 36-75 26-36 71-149 20-49 69-195 88-217 55-93 135-81 243-161 58-43 112-110 159-170 83-107 154-178 373-202 47-5 83 16 83 12 89-14 220-39 335 15-120 56-139 90-220 174 3 13 6 55-2 87-31 92-68 131-142 181-11 8-119 54-216 118-117 76-129 107-168 163 111-29 283-99 444-146 68-20 121-43 185-75 95-50 132-69 183-75 195-22 233 18 310 103 185-24 248-19 434 46-133 144-186 179-361 245-27 112-42 165-224 238-47 19-89 20-196 22-72 1-129 6-198 21-164 35-349 55-461 82 61 31 87 53 225 64 116 10 233 0 246 1 89 9 141 26 212 92 22 25 39 63 42 76 111 36 144 57 277 48-76 103-203 143-289 173-1-3-23 32-67 50-204 83-300 54-424-2-69-30-149-63-220-73-133-19-198 29-291-27-26-10-139-115-180-149-93-78-66-49-133-98-34-28-186-78-215-194z" id="path7"/></g></g></g></svg>