<?xml version="1.0" encoding="UTF-8"?>
<!DOCTYPE svg PUBLIC "-//W3C//DTD SVG 1.1//EN" "http://www.w3.org/Graphics/SVG/1.1/DTD/svg11.dtd">
<!-- Creator: CorelDRAW 2017 -->
<svg xmlns="http://www.w3.org/2000/svg" xml:space="preserve" width="533px" height="300px" version="1.1" shape-rendering="geometricPrecision" text-rendering="geometricPrecision" image-rendering="optimizeQuality" fill-rule="evenodd" clip-rule="evenodd"
viewBox="0 0 198 111.39"
 xmlns:xlink="http://www.w3.org/1999/xlink">
 <g id="Layer_x0020_1">
  <metadata id="CorelCorpID_0Corel-Layer"/>
  <path fill="##000000" d="M91.15 99.28c-0.13,1.4 -0.63,3.31 -1.38,4.46l-0.38 -0.31c-1.68,-1.67 -3.37,-3.15 -6.41,-1.12 -0.64,0.42 -1.47,1.02 -1.57,1.77 1.14,-0.21 2.97,-1.17 4.61,0.23 1.35,1.16 0.71,1.53 -1.33,2.2 -2.23,0.73 -1.94,0.32 -2.93,0.63 -0.83,0.26 -1.63,0.91 -1.99,1.57 -0.4,0.72 -0.88,1.97 -0.51,2.67 0.76,-0.42 0.21,-0.97 2.66,-1.34l-0.01 1.32c0.63,-0.23 0.51,-0.59 1.45,-0.99 0.81,0.25 0.68,0.55 1.43,0.67l6.76 0.01c1.8,0 4.3,0.5 5.12,-1.46 0.35,-0.83 -0.06,-0.91 -0.1,-1.75 0.85,-0.7 1.6,-0.99 1.3,-2.74 -0.49,-2.84 0.04,-6.58 0.29,-8.99 0.18,-1.66 0.05,-2.04 0.44,-3.69 0.27,-1.16 0.52,-2.65 0.38,-3.21 -0.92,-3.73 -4.38,-2.09 -7.35,-9.21 -3.27,-7.81 -6.51,-7.49 -4.14,-10.57 0.87,-1.12 1.42,-1.99 2.44,-3.07 2.14,-2.25 5.15,-1.9 7.53,-3.52 2.27,-1.55 3.96,-3.03 6.38,-4.65 11.75,-7.84 28.28,-10.76 42.35,-13.03 1.48,-0.24 0.44,-0.27 1.96,-0.33l7.66 -0.88c12.3,-1.29 24.51,-1.73 36.86,-0.72 1.54,0.13 3.88,0.58 5.33,0.34 -0.1,-1.05 -1.37,-1.15 -2.47,-1.44 -1.1,-0.29 -2.1,-0.58 -3.21,-0.86 -16.2,-4.13 -32.75,-6.12 -49.67,-6.89 -10.76,-0.49 -21.06,-0.07 -31.7,0.44 -5.15,0.25 -10.02,0.92 -15.12,1.15l-2.56 0.12c-0.41,-0.02 -0.55,-0.03 -0.98,-0.01 -3.99,0.17 -14.75,-0.57 -18.57,-1.37 -2.38,-0.49 -4.31,-1.04 -6.8,-1.38 -4.78,-0.66 -10.72,-0.01 -15.17,-1.21 -2.75,-0.73 -3.63,-1.38 -5.09,-2.94 -2.27,-2.44 -4.35,-7.87 -5.17,-11.21 -1.5,-6.17 -0.29,-12.19 -8.35,-16.03 -3.28,-1.56 -6.51,-2.2 -10.18,-1.84 -1.53,0.15 -2.46,-0.11 -3.87,-0.1 -2.85,0.03 -3.5,1.68 -5.37,2.6 -2.19,1.08 -3.84,0.99 -5.79,2.4 -2.4,1.74 -6.52,3.26 -7.36,4.93 -0.48,0.95 -0.69,2.33 -0.5,3.57 0,0 0.35,0.22 0.9,1.2 0.31,0.54 0.73,0.78 1.12,1.02 0.96,0.61 2.08,0.94 3.31,1.14 2.9,0.48 2.87,-0.6 7.49,0.17 2.53,0.42 5.01,0.98 7.62,1.04 9.93,0.2 9.57,9.48 10.12,16.43 0.3,3.78 0.86,7.45 1.86,11 0.32,1.14 0.79,2.2 1.13,3.31 0.75,2.44 0.41,3.54 2,6.73 0.51,1.01 1.12,1.74 1.51,2.76 0.43,1.14 0.82,2.08 1.28,3.17 0.77,1.83 2.11,2.57 -0.04,4.06l-3.44 3.33c-4.24,4.45 -5.77,4.3 -3.64,7.56 2.16,3.3 6.76,8.97 10.77,9.05 4.78,0.08 3.17,-1.36 4.45,-2.03 0.49,-0.2 4.98,1.1 6.49,-0.79 0.35,-0.44 0.38,-0.98 0.68,-1.46 0.3,-0.46 0.65,-0.52 0.82,-1.33 0.28,-1.35 -0.51,-2.37 -1.46,-2.51 0.6,0.29 0.44,1.52 -0.08,1.98 -0.76,-1.31 0.17,-2.41 -1.92,-3.05 0.18,0.56 0.34,0.78 0.21,1.46 -0.51,-1.58 -0.54,-2.06 -2.27,-2.47 0.35,0.6 1.02,1.26 0.61,2.15 -0.04,0.03 -0.11,0 -0.14,0.06l-0.28 0.1c-1.08,0.34 -1.45,0.6 -2.21,0.46 -0.71,-0.14 -1.85,-0.71 -2.38,-1.02 -0.75,-0.45 -1.31,-0.93 -1.97,-1.42 -2.57,-1.92 -2.28,-1.2 0.51,-3.89 1.78,-1.71 2.85,-2.36 4.89,-4.55 0.91,-0.97 1.54,-1.47 1.45,-3.37 1.67,0.46 3.26,1.18 5.12,1.63 1.9,0.46 3.78,0.73 5.69,1.16 1.17,0.23 2.07,0.99 2.05,2.26 -0.18,4.72 0.68,6.35 2.58,9.75 1.53,2.74 3.12,5.12 4.58,7.71 0.72,1.28 1.51,2.49 2.24,3.82 1.72,3.12 1.86,4.15 -1.47,8.37l-2.61 3.58c-2.95,-0.1 -4.79,-1 -6.46,3.89 -0.67,1.93 -5.99,-0.29 -5.78,5.43 0.61,-0.25 0.49,-0.47 1.09,-0.86 0.51,-0.34 0.97,-0.4 1.69,-0.46l-0.09 1.29c0.79,-0.22 0.34,-0.63 1.59,-1 1.11,0.04 -1.06,0.69 3.56,0.69 1.49,0 2.97,0 4.45,0 1.09,0 3.17,0.2 4.03,-0.25 0.31,-0.16 0.92,-0.62 1.13,-1.01 0.46,-0.87 -0.03,-1.08 0.01,-1.94 2.31,-2.25 0.64,-1.33 1.38,-3.6 0.67,-2.06 5.28,-6.52 6.72,-8.24 1.96,-2.36 0.4,-5.15 -1,-7.01 -1.74,-2.32 -1.6,-4.73 -1.81,-7.94 0.72,0.44 1.58,1.17 2.19,1.68 2.1,1.75 9.19,6.97 10.13,8.56 0.99,1.67 0.69,3.77 0.8,5.33 0.12,1.75 0.26,0.66 -0.12,2.65z"/>
 </g>
</svg>
